<svg width="326" height="620" xmlns="http://www.w3.org/2000/svg">

 <g>
  <title>background</title>
  <rect fill="none" id="canvas_background" height="402" width="582" y="-1" x="-1"/>
 </g>
 <g>
  <title>Layer 1</title>
  <path id="svg_1" d="m284,620c0,0 -242,0 -242,0c-23.196,0 -42,-18.804 -42,-42c0,0 0,-536 0,-536c0,-23.196 18.804,-42 42,-42c0,0 242,0 242,0c23.196,0 42,18.804 42,42c0,0 0,536 0,536c0,23.196 -18.804,42 -42,42zm39,-523c0,0 -320,0 -320,0c0,0 0,486 0,486c0,0 320,0 320,0c0,0 0,-486 0,-486z" fill="rgb( 244, 244, 244 )" stroke-width="0px" stroke="rgb( 14, 5, 10 )"/>
  <path id="svg_2" d="m3,37c0,0 320,0 320,0c0,0 0,60 0,60c0,0 -320,0 -320,0c0,0 0,-60 0,-60z" fill="rgb( 51, 51, 51 )" stroke-width="0px" stroke="rgb( 14, 5, 10 )"/>
  <path id="svg_3" d="m318,49c0,0 -1,0 -1,0c0,0 0,2 0,2c0,0 -18,0 -18,0c0,0 0,-8 0,-8c0,0 18,0 18,0c0,0 0,2 0,2c0,0 1,0 1,0c0,0 0,4 0,4z" fill="rgb( 255, 255, 255 )" stroke-width="0px" stroke="rgb( 14, 5, 10 )"/>
  <path id="svg_4" d="m300,44c0,0 16,0 16,0c0,0 0,6 0,6c0,0 -16,0 -16,0c0,0 0,-6 0,-6z" fill="rgb( 51, 51, 51 )" stroke-width="0px" stroke="rgb( 14, 5, 10 )"/>
  <path id="svg_5" d="m301,45c0,0 6,0 6,0c0,0 0,4 0,4c0,0 -6,0 -6,0c0,0 0,-4 0,-4z" fill="rgb( 255, 255, 255 )" stroke-width="0px" stroke="rgb( 14, 5, 10 )"/>
  <path id="svg_6" d="m31,49c-1.105,0 -2,-0.895 -2,-2c0,-1.105 0.895,-2 2,-2c1.105,0 2,0.895 2,2c0,1.105 -0.895,2 -2,2zm-7,0c-1.105,0 -2,-0.895 -2,-2c0,-1.105 0.895,-2 2,-2c1.105,0 2,0.895 2,2c0,1.105 -0.895,2 -2,2zm-7,0c-1.105,0 -2,-0.895 -2,-2c0,-1.105 0.895,-2 2,-2c1.105,0 2,0.895 2,2c0,1.105 -0.895,2 -2,2zm-7,0c-1.105,0 -2,-0.895 -2,-2c0,-1.105 0.895,-2 2,-2c1.105,0 2,0.895 2,2c0,1.105 -0.895,2 -2,2z" fill="rgb( 255, 255, 255 )" stroke-width="0px" stroke="rgb( 14, 5, 10 )"/>
  <path id="svg_7" d="m153.5,44c0,0 19,0 19,0c1.381,0 2.5,1.119 2.5,2.5c0,0 0,1 0,1c0,1.381 -1.119,2.5 -2.5,2.5c0,0 -19,0 -19,0c-1.381,0 -2.5,-1.119 -2.5,-2.5c0,0 0,-1 0,-1c0,-1.381 1.119,-2.5 2.5,-2.5z" fill="rgb( 255, 255, 255 )" opacity="0.2" stroke-width="0px" stroke="rgb( 14, 5, 10 )"/>
  <rect stroke="rgb( 14, 5, 10 )" id="svg_10" height="525.498244" width="323.498711" y="56.499777" x="1.000633" stroke-width="0px" fill="#ffffff"/>
 </g>
</svg>